<?xml version="1.0" standalone="no"?>
<!DOCTYPE svg PUBLIC "-//W3C//DTD SVG 20010904//EN"
 "http://www.w3.org/TR/2001/REC-SVG-20010904/DTD/svg10.dtd">
<svg version="1.0" xmlns="http://www.w3.org/2000/svg"
 width="230.000000pt" height="230.000000pt" viewBox="0 0 230.000000 230.000000"
 preserveAspectRatio="xMidYMid meet">
<metadata>
Created by potrace 1.11, written by Peter Selinger 2001-2013
</metadata>
<g transform="translate(0.000000,230.000000) scale(0.100000,-0.100000)"
fill="#000000" stroke="none">
<path d="M503 2235 c-75 -16 -124 -51 -158 -112 -21 -38 -25 -58 -25 -127 0
-71 4 -91 30 -144 17 -34 30 -65 30 -69 0 -11 93 -168 102 -171 14 -6 9 -49
-8 -63 -14 -12 -16 -30 -10 -134 l7 -120 -46 -60 c-79 -102 -88 -124 -82 -229
2 -50 10 -132 18 -182 l13 -90 -33 -48 c-41 -59 -60 -136 -61 -242 0 -80 1
-83 38 -131 44 -59 107 -116 182 -165 58 -39 244 -98 309 -98 19 0 71 -5 116
-12 79 -11 221 -4 395 21 56 7 154 46 268 104 71 36 187 136 198 170 3 12 19
43 35 68 22 35 29 58 29 97 0 44 4 54 24 68 14 8 39 38 57 65 29 45 32 59 41
172 5 67 11 132 14 144 8 39 54 83 100 94 59 15 65 25 57 99 l-6 62 -52 -5
c-60 -6 -139 -40 -176 -76 -30 -30 -75 -99 -100 -153 -10 -20 -28 -51 -41 -68
-23 -31 -23 -31 -29 -8 -4 13 -7 78 -8 146 -1 125 -10 162 -45 191 -11 9 -16
31 -16 66 0 35 -5 57 -15 65 -31 26 -10 84 60 163 22 25 48 58 57 73 9 16 32
49 50 73 31 40 33 48 32 120 -1 49 -7 87 -18 106 -9 17 -16 36 -16 43 0 30
-55 112 -103 154 -40 34 -64 47 -99 52 -26 4 -50 11 -53 15 -2 5 -53 12 -112
16 -60 4 -130 11 -158 17 -160 31 -253 37 -495 27 -69 -2 -119 1 -145 10 -63
20 -86 21 -152 6z m309 -189 c89 -31 150 -38 378 -46 129 -5 273 -14 320 -20
81 -11 87 -14 125 -54 84 -87 87 -94 80 -166 -3 -35 -13 -72 -21 -81 -7 -8
-14 -22 -14 -30 0 -8 -6 -23 -13 -34 -7 -11 -19 -36 -27 -55 -7 -19 -28 -68
-47 -107 -29 -61 -38 -73 -58 -73 -13 0 -26 4 -30 9 -3 5 -21 15 -40 21 -19 6
-49 25 -67 42 -47 44 -122 75 -214 88 -69 9 -82 14 -102 40 -39 50 -122 33
-122 -25 0 -19 -7 -23 -52 -29 -95 -12 -182 -38 -218 -64 -19 -15 -36 -30 -38
-34 -8 -18 -30 21 -36 66 -5 31 -16 57 -32 73 -16 16 -35 60 -55 131 -17 58
-42 120 -55 138 -24 31 -24 35 -15 109 14 114 16 115 177 115 90 0 147 -5 176
-14z"/>
</g>
</svg>
