<?xml version="1.0" encoding="utf-8"?>
<!-- Generator: Adobe Illustrator 16.2.1, SVG Export Plug-In . SVG Version: 6.00 Build 0)  -->
<!DOCTYPE svg PUBLIC "-//W3C//DTD SVG 1.1//EN" "http://www.w3.org/Graphics/SVG/1.1/DTD/svg11.dtd">
<svg version="1.1" id="RU" xmlns="http://www.w3.org/2000/svg" xmlns:xlink="http://www.w3.org/1999/xlink" x="0px" y="0px"
	 width="109.25px" height="40px" viewBox="0 0 109.25 40" enable-background="new 0 0 109.25 40" xml:space="preserve">
<g>
	<g>
		<g>
			<path fill="#A6A6A6" d="M99.721,0H9.535C9.168,0,8.806,0,8.439,0.002C8.134,0.004,7.83,0.01,7.521,0.015
				c-0.666,0.017-1.34,0.058-2.004,0.177c-0.67,0.117-1.292,0.317-1.901,0.627C3.018,1.125,2.471,1.523,1.998,1.997
				C1.52,2.471,1.123,3.02,0.819,3.618C0.508,4.227,0.311,4.852,0.194,5.521c-0.12,0.662-0.162,1.332-0.179,2.002
				C0.006,7.83,0.005,8.138,0,8.444C0,8.807,0,9.17,0,9.536v20.929c0,0.369,0,0.73,0,1.094c0.005,0.311,0.006,0.611,0.016,0.922
				c0.017,0.67,0.059,1.34,0.179,2.002c0.116,0.67,0.313,1.297,0.625,1.904c0.304,0.596,0.7,1.145,1.179,1.613
				c0.473,0.479,1.02,0.875,1.618,1.18c0.609,0.312,1.231,0.51,1.901,0.631c0.664,0.119,1.338,0.158,2.004,0.176
				c0.309,0.008,0.612,0.012,0.918,0.012C8.806,40,9.168,40,9.535,40h90.186c0.359,0,0.725,0,1.084-0.002
				c0.305,0,0.617-0.004,0.922-0.012c0.67-0.018,1.342-0.057,2-0.176c0.67-0.121,1.293-0.318,1.908-0.631
				c0.598-0.305,1.145-0.701,1.617-1.18c0.477-0.469,0.873-1.018,1.182-1.613c0.307-0.607,0.506-1.234,0.619-1.904
				c0.123-0.662,0.162-1.332,0.186-2.002c0.004-0.311,0.004-0.611,0.004-0.922c0.008-0.363,0.008-0.725,0.008-1.094V9.536
				c0-0.366,0-0.729-0.008-1.092c0-0.307,0-0.614-0.004-0.921c-0.023-0.67-0.062-1.34-0.186-2.002
				c-0.113-0.67-0.312-1.295-0.619-1.903c-0.309-0.599-0.705-1.147-1.182-1.621c-0.473-0.474-1.02-0.872-1.617-1.179
				c-0.615-0.31-1.238-0.51-1.908-0.627c-0.658-0.119-1.33-0.16-2-0.177c-0.305-0.005-0.617-0.011-0.922-0.013
				C100.445,0,100.08,0,99.721,0L99.721,0z"/>
			<path d="M8.445,39.125c-0.305,0-0.603-0.004-0.904-0.012c-0.56-0.016-1.223-0.047-1.869-0.162
				c-0.611-0.111-1.153-0.291-1.657-0.549c-0.521-0.264-0.99-0.605-1.397-1.016c-0.414-0.406-0.754-0.873-1.02-1.396
				c-0.26-0.506-0.438-1.047-0.543-1.658C0.932,33.66,0.9,32.977,0.888,32.457c-0.007-0.211-0.015-0.912-0.015-0.912V8.444
				c0,0,0.009-0.691,0.015-0.895C0.9,7.025,0.932,6.344,1.053,5.678C1.16,5.064,1.338,4.522,1.597,4.016
				c0.266-0.524,0.606-0.994,1.015-1.398c0.414-0.414,0.885-0.757,1.402-1.022c0.514-0.261,1.056-0.439,1.654-0.544
				C6.341,0.931,7.023,0.9,7.543,0.887l0.902-0.012H100.8l0.913,0.013c0.513,0.013,1.195,0.043,1.858,0.163
				c0.603,0.105,1.147,0.285,1.671,0.548c0.513,0.263,0.982,0.605,1.392,1.016c0.409,0.406,0.752,0.878,1.023,1.404
				c0.258,0.511,0.434,1.053,0.535,1.649c0.116,0.631,0.152,1.279,0.174,1.888c0.003,0.283,0.003,0.587,0.003,0.89
				c0.008,0.375,0.008,0.731,0.008,1.092v20.929c0,0.363,0,0.717-0.008,1.074c0,0.326,0,0.623-0.004,0.93
				c-0.021,0.59-0.057,1.236-0.171,1.854c-0.104,0.613-0.279,1.156-0.54,1.67c-0.27,0.52-0.612,0.99-1.016,1.387
				c-0.413,0.418-0.882,0.758-1.399,1.021c-0.519,0.264-1.048,0.439-1.668,0.551c-0.641,0.115-1.304,0.146-1.869,0.162
				c-0.293,0.008-0.6,0.012-0.897,0.012l-1.084,0.002L8.445,39.125z"/>
		</g>
	</g>
	<g>
		<path fill="#FFFFFF" d="M36.309,4.439c-0.354-0.171-0.77-0.256-1.244-0.256c-0.748,0-1.333,0.228-1.758,0.684
			c-0.45,0.469-0.674,1.121-0.674,1.957c0,0.399,0.055,0.757,0.166,1.073c0.111,0.317,0.27,0.587,0.475,0.812
			c0.206,0.225,0.456,0.396,0.75,0.513s0.628,0.176,1.002,0.176c0.519,0,0.956-0.085,1.311-0.256l0.162,0.655
			c-0.393,0.19-0.941,0.285-1.644,0.285c-0.906,0-1.641-0.272-2.204-0.817c-0.589-0.576-0.884-1.381-0.884-2.413
			c0-1.007,0.301-1.817,0.903-2.432c0.608-0.614,1.396-0.921,2.365-0.921c0.633,0,1.124,0.092,1.473,0.275L36.309,4.439z"/>
		<path fill="#FFFFFF" d="M41.344,5.398v4.598h-0.817V6.063h-1.539v1.168c0,0.298-0.011,0.61-0.033,0.936
			c-0.022,0.326-0.085,0.628-0.19,0.907s-0.265,0.51-0.48,0.693s-0.516,0.282-0.902,0.294l-0.085-0.665
			c0.082-0.013,0.165-0.035,0.247-0.066c0.082-0.032,0.148-0.073,0.199-0.124c0.209-0.152,0.339-0.391,0.39-0.717
			s0.076-0.746,0.076-1.259V5.398H41.344z"/>
		<path fill="#FFFFFF" d="M46.796,5.398l-1.216,3.259c-0.152,0.412-0.294,0.768-0.427,1.069c-0.133,0.3-0.25,0.552-0.352,0.755
			c-0.241,0.456-0.498,0.808-0.77,1.055c-0.336,0.297-0.671,0.478-1.007,0.542l-0.218-0.693c0.272-0.089,0.516-0.228,0.731-0.418
			c0.285-0.241,0.51-0.548,0.674-0.922c0.044-0.082,0.067-0.146,0.067-0.19c0-0.038-0.019-0.111-0.057-0.218l-1.653-4.237h0.893
			l0.979,2.717c0.051,0.126,0.098,0.268,0.143,0.423c0.044,0.155,0.092,0.324,0.143,0.508h0.028c0.032-0.101,0.07-0.231,0.114-0.389
			s0.101-0.345,0.171-0.561l0.884-2.698H46.796z"/>
		<path fill="#FFFFFF" d="M48.82,5.398v3.943h1.548V5.398h0.817v3.943h1.549V5.398h0.817v4.598h-5.548V5.398H48.82z"/>
		<path fill="#FFFFFF" d="M57.863,9.997l-0.076-0.57h-0.019c-0.31,0.443-0.77,0.665-1.378,0.665c-0.43,0-0.772-0.133-1.025-0.399
			c-0.234-0.24-0.352-0.544-0.352-0.912c0-0.558,0.229-0.982,0.689-1.273c0.459-0.292,1.119-0.437,1.98-0.437h0.037V6.976
			c0-0.709-0.342-1.064-1.025-1.064c-0.443,0-0.833,0.111-1.168,0.333l-0.19-0.551c0.412-0.259,0.91-0.389,1.492-0.389
			c1.141,0,1.71,0.621,1.71,1.862v1.739c0,0.437,0.025,0.801,0.076,1.092H57.863z M57.73,7.65h-0.143
			c-1.165,0-1.748,0.345-1.748,1.036c0,0.266,0.073,0.465,0.219,0.599c0.146,0.133,0.329,0.199,0.551,0.199
			c0.279,0,0.517-0.079,0.713-0.237c0.127-0.101,0.227-0.217,0.299-0.347c0.073-0.13,0.109-0.277,0.109-0.442V7.65z"/>
		<path fill="#FFFFFF" d="M61.104,5.398v1.938c0,0.184,0,0.352,0,0.503c0,0.152-0.002,0.301-0.005,0.447s-0.009,0.29-0.015,0.432
			s-0.013,0.296-0.02,0.461h0.029c0.062-0.139,0.121-0.266,0.176-0.38c0.054-0.114,0.107-0.225,0.162-0.333
			c0.053-0.108,0.107-0.217,0.16-0.328c0.055-0.11,0.119-0.232,0.195-0.366l1.406-2.375h0.969v4.598h-0.798V8.049
			c0-0.19,0.001-0.359,0.005-0.508c0.003-0.149,0.006-0.295,0.01-0.437c0.002-0.143,0.008-0.288,0.014-0.437s0.013-0.315,0.02-0.499
			h-0.029c-0.069,0.146-0.135,0.28-0.194,0.404c-0.061,0.124-0.118,0.242-0.176,0.356c-0.058,0.114-0.116,0.225-0.176,0.333
			c-0.06,0.107-0.122,0.218-0.185,0.333c-0.216,0.361-0.443,0.75-0.685,1.168s-0.481,0.83-0.722,1.235h-0.932V5.398H61.104z
			 M61.606,3.527c0.013,0.203,0.068,0.374,0.167,0.513c0.098,0.14,0.244,0.209,0.441,0.209c0.203,0,0.354-0.068,0.456-0.204
			c0.101-0.136,0.161-0.309,0.181-0.518h0.607c-0.025,0.393-0.15,0.688-0.375,0.884s-0.521,0.294-0.889,0.294
			c-0.209,0-0.388-0.03-0.537-0.09c-0.148-0.06-0.27-0.144-0.365-0.251c-0.095-0.108-0.166-0.233-0.213-0.375
			c-0.049-0.143-0.075-0.296-0.082-0.461H61.606z"/>
		<path fill="#FFFFFF" d="M68.998,5.398v0.665h-1.406v3.933h-0.816V6.063h-1.396V5.398H68.998z"/>
		<path fill="#FFFFFF" d="M73.891,7.432c0,0.171-0.01,0.307-0.028,0.408h-3.154c0.013,0.507,0.155,0.899,0.428,1.178
			s0.646,0.418,1.121,0.418c0.449,0,0.86-0.076,1.235-0.228l0.143,0.589c-0.418,0.184-0.919,0.276-1.502,0.276
			c-0.342,0-0.648-0.054-0.922-0.162c-0.271-0.108-0.504-0.263-0.697-0.465S70.173,9,70.072,8.719
			c-0.102-0.282-0.152-0.6-0.152-0.955c0-0.709,0.189-1.298,0.57-1.767c0.393-0.469,0.908-0.703,1.548-0.703
			c0.652,0,1.144,0.25,1.473,0.75C73.764,6.431,73.891,6.894,73.891,7.432z M73.093,7.242c0-0.361-0.073-0.656-0.219-0.884
			c-0.196-0.31-0.497-0.465-0.902-0.465c-0.38,0-0.685,0.152-0.912,0.456c-0.184,0.247-0.298,0.545-0.342,0.893H73.093z"/>
		<path fill="#FFFFFF" d="M78.926,5.398v1.853h2.127V5.398h0.817v4.598h-0.817V7.916h-2.127v2.081h-0.818V5.398H78.926z"/>
		<path fill="#FFFFFF" d="M86.184,9.997l-0.076-0.57h-0.02c-0.311,0.443-0.77,0.665-1.377,0.665c-0.432,0-0.773-0.133-1.026-0.399
			c-0.234-0.24-0.352-0.544-0.352-0.912c0-0.558,0.229-0.982,0.688-1.273c0.459-0.292,1.119-0.437,1.98-0.437h0.039V6.976
			c0-0.709-0.342-1.064-1.026-1.064c-0.443,0-0.833,0.111-1.169,0.333l-0.189-0.551c0.411-0.259,0.908-0.389,1.491-0.389
			c1.14,0,1.71,0.621,1.71,1.862v1.739c0,0.437,0.025,0.801,0.076,1.092H86.184z M86.05,7.65h-0.142
			c-1.166,0-1.748,0.345-1.748,1.036c0,0.266,0.072,0.465,0.218,0.599c0.146,0.133,0.329,0.199,0.552,0.199
			c0.277,0,0.516-0.079,0.712-0.237c0.126-0.101,0.226-0.217,0.3-0.347c0.072-0.13,0.108-0.277,0.108-0.442V7.65z"/>
	</g>
	<g>
		<path fill="#FFFFFF" d="M88.304,22.49v-1.635c0-2.779,1.198-4.148,3.033-4.148c1.826,0,2.791,1.379,2.791,2.865h2.949v-0.306
			c0-2.803-2.174-5.137-5.759-5.137c-3.844,0-6.135,2.482-6.135,6.716v1.635c0,4.232,2.271,6.684,6.121,6.684
			c3.683,0,5.772-2.367,5.772-4.998V23.85h-2.949c0,1.494-0.945,2.734-2.77,2.734C89.492,26.584,88.304,25.279,88.304,22.49
			L88.304,22.49z M78.969,28.887h3.076V14.405h-3.076V28.887L78.969,28.887z M67.817,18.299c0-1.113,0.923-1.814,2.408-1.814
			c1.677,0,2.515,0.943,2.589,1.963h2.864c-0.031-2.557-2.205-4.34-5.444-4.34c-3.064,0-5.483,1.58-5.483,4.426
			c0,2.46,1.696,3.605,3.734,4.041l2.174,0.5c1.467,0.328,2.209,0.807,2.209,1.791c0,1.127-0.913,1.893-2.622,1.893
			c-1.834,0-2.8-0.957-2.885-2.029H64.41c0.044,2.047,1.422,4.436,5.688,4.436c3.587,0,5.804-1.75,5.804-4.596
			c0-2.631-1.794-3.658-3.916-4.117l-2.195-0.486C68.495,19.699,67.817,19.137,67.817,18.299L67.817,18.299z M61.807,23.977v-9.572
			h-3.065v9.146c0,1.941-1.156,3.016-2.854,3.016c-1.709,0-2.865-1.062-2.865-3.016v-9.146h-3.055v9.572
			c0,3.086,2.228,5.188,5.92,5.188C59.569,29.164,61.807,27.062,61.807,23.977L61.807,23.977z M44.203,28.887h2.77V14.405h-3.119
			l-4.001,8.976h-0.096l-4-8.976h-3.141v14.482h2.736v-9.379h0.129l3.342,7.449h1.922l3.33-7.449h0.128V28.887L44.203,28.887z
			 M26.89,22.979c-0.866-0.846-1.307-1.889-1.319-3.133c-0.027-1.611,0.683-2.867,2.127-3.767c-0.814-1.164-2.017-1.816-3.604-1.963
			c-0.565-0.053-1.287,0.08-2.165,0.398c-0.946,0.342-1.479,0.514-1.598,0.514c-0.249,0-0.729-0.145-1.438-0.436
			c-0.708-0.291-1.312-0.438-1.811-0.438c-0.841,0.014-1.623,0.242-2.345,0.686c-0.723,0.441-1.3,1.047-1.733,1.814
			c-0.552,0.951-0.827,2.088-0.827,3.412c0,1.188,0.203,2.377,0.611,3.566c0.38,1.137,0.867,2.137,1.457,2.996
			c0.524,0.779,0.986,1.348,1.379,1.703c0.565,0.555,1.143,0.822,1.733,0.793c0.381-0.012,0.879-0.152,1.498-0.416
			c0.577-0.25,1.155-0.377,1.732-0.377c0.539,0,1.098,0.127,1.674,0.377c0.643,0.264,1.169,0.396,1.575,0.396
			c0.604-0.025,1.17-0.283,1.695-0.773c0.184-0.158,0.384-0.377,0.6-0.654c0.217-0.277,0.457-0.607,0.72-0.99
			c0.184-0.279,0.363-0.576,0.542-0.893c0.177-0.318,0.339-0.654,0.482-1.014c0.065-0.143,0.125-0.293,0.178-0.443
			c0.052-0.152,0.104-0.307,0.157-0.465C27.724,23.66,27.283,23.361,26.89,22.979L26.89,22.979z M23.088,12.51
			c0.696-0.859,1.045-1.785,1.045-2.777c0-0.064,0-0.131,0-0.195c0-0.068-0.008-0.135-0.021-0.199
			c-0.485,0.025-1.001,0.178-1.546,0.455s-0.994,0.629-1.349,1.051c-0.708,0.834-1.064,1.725-1.064,2.676c0,0.068,0,0.131,0,0.189
			c0,0.061,0.006,0.123,0.021,0.189C21.263,14.004,22.235,13.542,23.088,12.51L23.088,12.51z"/>
	</g>
</g>
<g>
</g>
<g>
</g>
<g>
</g>
<g>
</g>
<g>
</g>
<g>
</g>
</svg>
